<svg width="59" height="59" viewBox="0 0 59 59" fill="none" xmlns="http://www.w3.org/2000/svg">
<path d="M18.4375 13.5208C17.1335 13.5208 15.8829 13.0028 14.9609 12.0808C14.0388 11.1587 13.5208 9.90815 13.5208 8.60417C13.5208 7.30019 14.0388 6.04961 14.9609 5.12756C15.8829 4.2055 17.1335 3.6875 18.4375 3.6875C19.7415 3.6875 20.9921 4.2055 21.9141 5.12756C22.8362 6.04961 23.3542 7.30019 23.3542 8.60417C23.3542 9.90815 22.8362 11.1587 21.9141 12.0808C20.9921 13.0028 19.7415 13.5208 18.4375 13.5208ZM27.2875 47.6917L24.8292 36.875L19.6667 41.7917V56.5417H14.75V38.1042L19.9125 33.1875L18.4375 25.8125C16.753 27.7426 14.6749 29.2897 12.3427 30.3498C10.0105 31.4099 7.47845 31.9583 4.91666 31.9583V27.0417C9.24333 27.1154 13.275 24.8538 15.4875 21.1417L17.9458 17.2083C18.8308 15.7333 20.4042 14.75 22.125 14.75C22.8625 14.75 23.3542 14.9958 24.0917 14.9958L36.875 20.4042V31.9583H31.9583V23.6L27.5333 21.8792L31.4667 41.7917L43.5125 39.3333L44.4958 44.25L27.2875 47.6917ZM49.1667 22.125C49.8187 22.125 50.4439 21.866 50.905 21.405C51.366 20.9439 51.625 20.3187 51.625 19.6667C51.625 19.0147 51.366 18.3894 50.905 17.9284C50.4439 17.4673 49.8187 17.2083 49.1667 17.2083H41.7917V22.125H49.1667ZM46.7083 12.2917C47.3603 12.2917 47.9856 12.0327 48.4466 11.5716C48.9077 11.1106 49.1667 10.4853 49.1667 9.83333C49.1667 9.18134 48.9077 8.55606 48.4466 8.09503C47.9856 7.634 47.3603 7.375 46.7083 7.375H34.4167V12.2917H46.7083ZM51.625 31.9583C52.277 31.9583 52.9023 31.6993 53.3633 31.2383C53.8243 30.7773 54.0833 30.152 54.0833 29.5C54.0833 28.848 53.8243 28.2227 53.3633 27.7617C52.9023 27.3007 52.277 27.0417 51.625 27.0417H41.7917V31.9583H51.625Z" fill="#FDFDFD"/>
</svg>
