<svg width="65" height="63" viewBox="0 0 65 63" fill="none" xmlns="http://www.w3.org/2000/svg">
<g id="star">
<path id="Vector" d="M34.3084 46.1125C33.1961 45.4412 31.8035 45.4412 30.6913 46.1125L19.0376 53.1462C18.6592 53.3746 18.1923 53.0358 18.2922 52.6052L21.3662 39.3473C21.659 38.0844 21.2298 36.7631 20.2507 35.9134L9.96826 26.9894C9.63464 26.6998 9.81292 26.1515 10.253 26.1136L23.8193 24.9438C25.1103 24.8324 26.2341 24.017 26.7404 22.8243L32.0396 10.34C32.212 9.93384 32.7877 9.93385 32.9601 10.34L38.2593 22.8242C38.7656 24.017 39.8894 24.8324 41.1804 24.9438L54.7407 26.1131C55.181 26.151 55.3592 26.6998 55.0251 26.9891L44.7259 35.9113C43.744 36.762 43.314 38.0867 43.6091 39.3519L46.6997 52.6C46.8002 53.0307 46.3331 53.3702 45.9544 53.1416L34.3084 46.1125Z" stroke="#FDFDFD" stroke-width="3"/>
</g>
</svg>
